<svg width="178" height="48" viewBox="0 0 178 48" fill="none" xmlns="http://www.w3.org/2000/svg">
<path fill-rule="evenodd" clip-rule="evenodd" d="M21.0465 42.0457L0.495117 21.0676L21.0595 0.496094L41.9122 21.2513L21.0465 42.0457Z" stroke="white" stroke-width="0.703595" stroke-miterlimit="2.61313"/>
<path fill-rule="evenodd" clip-rule="evenodd" d="M21.0989 44.6016L0.495117 24.0039L21.0465 3.07812L41.7026 23.794L21.0989 44.6016Z" stroke="white" stroke-width="0.703595" stroke-miterlimit="2.61313"/>
<path fill-rule="evenodd" clip-rule="evenodd" d="M21.152 47.082L0.600586 26.3925L21.152 5.4668L41.4981 26.5007L21.152 47.082Z" stroke="white" stroke-width="0.703595" stroke-miterlimit="2.61313"/>
<path d="M19.5664 18.5771L19.541 19.415H19.542V19.416L19.8291 19.4199V19.9922L19.8301 19.9932L20.124 19.9893L20.125 20.4395L20.0137 20.4375L20.0127 20.4541V21.0938L26.6709 20.8838L26.6963 22.5342L24.2344 22.4043H24.2334V29.4316H22.583V22.2471H20.0664V22.2217L20.0654 22.2471L19.9736 26.8623L20.2227 27.7275L20.249 29.3525L17.5234 29.4053L17.4453 27.9766L17.707 27.2822L17.8477 22.4062H17.8398L17.8467 22.4053L15.5186 22.5078V21.0547H17.8633L17.8643 21.0537V20.4375H17.6016V19.9922H17.8906V19.416H18.2305L18.2314 19.415V18.6025L19.5664 18.5771Z" fill="#FEFEFE" stroke="#FDC600" stroke-width="0.0010256"/>
<path d="M62.1659 18.7608V20.8559H59.3215V29.4961H56.7065V20.8559H53.8621V18.7608H62.1659Z" fill="#7AC043"/>
<path d="M70.0541 23.0427V25.2142H63.3254V23.0427H70.0541ZM71.9057 24.1131C71.9057 23.0529 72.1351 22.1098 72.5938 21.284C73.0526 20.4481 73.6898 19.8007 74.5054 19.3419C75.3312 18.8729 76.264 18.6384 77.3039 18.6384C78.5783 18.6384 79.6692 18.9749 80.5765 19.6477C81.4839 20.3206 82.0905 21.2382 82.3963 22.4004H79.5213C79.3072 21.9518 79.0014 21.6103 78.6038 21.3758C78.2164 21.1413 77.7729 21.0241 77.2733 21.0241C76.4679 21.0241 75.8155 21.3044 75.3159 21.8652C74.8164 22.4259 74.5666 23.1752 74.5666 24.1131C74.5666 25.0511 74.8164 25.8004 75.3159 26.3611C75.8155 26.9219 76.4679 27.2022 77.2733 27.2022C77.7729 27.2022 78.2164 27.085 78.6038 26.8505C79.0014 26.616 79.3072 26.2745 79.5213 25.8259H82.3963C82.0905 26.9881 81.4839 27.9057 80.5765 28.5785C79.6692 29.2412 78.5783 29.5726 77.3039 29.5726C76.264 29.5726 75.3312 29.3432 74.5054 28.8844C73.6898 28.4154 73.0526 27.768 72.5938 26.9423C72.1351 26.1165 71.9057 25.1734 71.9057 24.1131ZM87.882 29.6184C87.046 29.6184 86.2916 29.44 85.6187 29.0832C84.956 28.7264 84.431 28.2166 84.0436 27.554C83.6664 26.8913 83.4778 26.1165 83.4778 25.2295C83.4778 24.3527 83.6715 23.583 84.0589 22.9203C84.4463 22.2475 84.9764 21.7326 85.6493 21.3758C86.3222 21.019 87.0766 20.8406 87.9126 20.8406C88.7486 20.8406 89.503 21.019 90.1759 21.3758C90.8487 21.7326 91.3789 22.2475 91.7663 22.9203C92.1537 23.583 92.3474 24.3527 92.3474 25.2295C92.3474 26.1063 92.1486 26.8811 91.751 27.554C91.3636 28.2166 90.8284 28.7264 90.1453 29.0832C89.4724 29.44 88.718 29.6184 87.882 29.6184ZM87.882 27.3551C88.3816 27.3551 88.8047 27.1716 89.1513 26.8046C89.5081 26.4376 89.6865 25.9126 89.6865 25.2295C89.6865 24.5464 89.5132 24.0214 89.1666 23.6544C88.8301 23.2874 88.4121 23.1038 87.9126 23.1038C87.4028 23.1038 86.9798 23.2874 86.6433 23.6544C86.3069 24.0112 86.1387 24.5362 86.1387 25.2295C86.1387 25.9126 86.3018 26.4376 86.628 26.8046C86.9645 27.1716 87.3825 27.3551 87.882 27.3551ZM97.619 29.6184C96.783 29.6184 96.0286 29.44 95.3557 29.0832C94.693 28.7264 94.168 28.2166 93.7806 27.554C93.4034 26.8913 93.2148 26.1165 93.2148 25.2295C93.2148 24.3527 93.4085 23.583 93.7959 22.9203C94.1833 22.2475 94.7134 21.7326 95.3863 21.3758C96.0592 21.019 96.8136 20.8406 97.6496 20.8406C98.4856 20.8406 99.24 21.019 99.9129 21.3758C100.586 21.7326 101.116 22.2475 101.503 22.9203C101.891 23.583 102.084 24.3527 102.084 25.2295C102.084 26.1063 101.886 26.8811 101.488 27.554C101.101 28.2166 100.565 28.7264 99.8823 29.0832C99.2094 29.44 98.455 29.6184 97.619 29.6184ZM97.619 27.3551C98.1186 27.3551 98.5416 27.1716 98.8883 26.8046C99.2451 26.4376 99.4235 25.9126 99.4235 25.2295C99.4235 24.5464 99.2502 24.0214 98.9036 23.6544C98.5671 23.2874 98.1491 23.1038 97.6496 23.1038C97.1398 23.1038 96.7167 23.2874 96.3803 23.6544C96.0439 24.0112 95.8757 24.5362 95.8757 25.2295C95.8757 25.9126 96.0388 26.4376 96.365 26.8046C96.7015 27.1716 97.1195 27.3551 97.619 27.3551ZM106.087 22.171C106.342 21.7734 106.693 21.4523 107.142 21.2076C107.59 20.9629 108.116 20.8406 108.717 20.8406C109.42 20.8406 110.058 21.019 110.629 21.3758C111.2 21.7326 111.648 22.2424 111.974 22.905C112.311 23.5677 112.479 24.3374 112.479 25.2142C112.479 26.091 112.311 26.8658 111.974 27.5387C111.648 28.2013 111.2 28.7162 110.629 29.0832C110.058 29.44 109.42 29.6184 108.717 29.6184C108.126 29.6184 107.601 29.4961 107.142 29.2514C106.693 29.0067 106.342 28.6907 106.087 28.3033V33.5639H103.472V20.9629H106.087V22.171ZM109.818 25.2142C109.818 24.5617 109.635 24.052 109.268 23.685C108.911 23.3077 108.467 23.1191 107.937 23.1191C107.417 23.1191 106.974 23.3077 106.607 23.685C106.25 24.0622 106.071 24.577 106.071 25.2295C106.071 25.882 106.25 26.3968 106.607 26.774C106.974 27.1512 107.417 27.3399 107.937 27.3399C108.457 27.3399 108.901 27.1512 109.268 26.774C109.635 26.3866 109.818 25.8667 109.818 25.2142ZM121.895 25.0919C121.895 25.3365 121.879 25.5914 121.849 25.8565H115.931C115.971 26.3866 116.14 26.7944 116.435 27.0799C116.741 27.3551 117.113 27.4928 117.552 27.4928C118.204 27.4928 118.658 27.2175 118.913 26.667H121.696C121.553 27.2277 121.293 27.7324 120.916 28.1809C120.549 28.6295 120.085 28.9812 119.524 29.2361C118.964 29.491 118.337 29.6184 117.643 29.6184C116.807 29.6184 116.063 29.44 115.411 29.0832C114.758 28.7264 114.248 28.2166 113.881 27.554C113.514 26.8913 113.331 26.1165 113.331 25.2295C113.331 24.3425 113.509 23.5677 113.866 22.905C114.233 22.2424 114.743 21.7326 115.395 21.3758C116.048 21.019 116.797 20.8406 117.643 20.8406C118.469 20.8406 119.203 21.0139 119.846 21.3605C120.488 21.7071 120.987 22.2016 121.344 22.8439C121.711 23.4862 121.895 24.2355 121.895 25.0919ZM119.219 24.4037C119.219 23.9551 119.066 23.5983 118.76 23.3332C118.454 23.0682 118.072 22.9356 117.613 22.9356C117.174 22.9356 116.802 23.0631 116.496 23.3179C116.201 23.5728 116.017 23.9347 115.946 24.4037H119.219ZM125.889 22.3851C126.195 21.9161 126.577 21.5491 127.036 21.284C127.495 21.0088 128.005 20.8711 128.565 20.8711V23.6391H127.847C127.194 23.6391 126.705 23.7818 126.379 24.0673C126.052 24.3425 125.889 24.8319 125.889 25.5353V29.4961H123.274V20.9629H125.889V22.3851ZM129.295 25.2142C129.295 24.3374 129.459 23.5677 129.785 22.905C130.121 22.2424 130.575 21.7326 131.146 21.3758C131.717 21.019 132.354 20.8406 133.057 20.8406C133.659 20.8406 134.184 20.9629 134.632 21.2076C135.091 21.4523 135.443 21.7734 135.688 22.171V20.9629H138.303V29.4961H135.688V28.288C135.433 28.6856 135.076 29.0067 134.617 29.2514C134.169 29.4961 133.644 29.6184 133.042 29.6184C132.349 29.6184 131.717 29.44 131.146 29.0832C130.575 28.7162 130.121 28.2013 129.785 27.5387C129.459 26.8658 129.295 26.091 129.295 25.2142ZM135.688 25.2295C135.688 24.577 135.504 24.0622 135.137 23.685C134.78 23.3077 134.342 23.1191 133.822 23.1191C133.302 23.1191 132.859 23.3077 132.492 23.685C132.135 24.052 131.956 24.5617 131.956 25.2142C131.956 25.8667 132.135 26.3866 132.492 26.774C132.859 27.1512 133.302 27.3399 133.822 27.3399C134.342 27.3399 134.78 27.1512 135.137 26.774C135.504 26.3968 135.688 25.882 135.688 25.2295ZM144.95 27.2787V29.4961H143.62C142.672 29.4961 141.933 29.2667 141.403 28.8079C140.872 28.339 140.607 27.5794 140.607 26.5294V23.1344H139.568V20.9629H140.607V18.8831H143.222V20.9629H144.935V23.1344H143.222V26.5599C143.222 26.8148 143.284 26.9983 143.406 27.1105C143.528 27.2226 143.732 27.2787 144.018 27.2787H144.95ZM147.722 20.0759C147.263 20.0759 146.886 19.9434 146.591 19.6783C146.305 19.4031 146.162 19.0666 146.162 18.669C146.162 18.2612 146.305 17.9248 146.591 17.6597C146.886 17.3845 147.263 17.2468 147.722 17.2468C148.171 17.2468 148.538 17.3845 148.823 17.6597C149.119 17.9248 149.267 18.2612 149.267 18.669C149.267 19.0666 149.119 19.4031 148.823 19.6783C148.538 19.9434 148.171 20.0759 147.722 20.0759ZM149.022 20.9629V29.4961H146.407V20.9629H149.022ZM154.756 27.0493L156.606 20.9629H159.389L156.361 29.4961H153.135L150.107 20.9629H152.905L154.756 27.0493ZM168.534 25.0919C168.534 25.3365 168.518 25.5914 168.488 25.8565H162.57C162.61 26.3866 162.779 26.7944 163.074 27.0799C163.38 27.3551 163.752 27.4928 164.191 27.4928C164.843 27.4928 165.297 27.2175 165.552 26.667H168.335C168.192 27.2277 167.932 27.7324 167.555 28.1809C167.188 28.6295 166.724 28.9812 166.163 29.2361C165.603 29.491 164.976 29.6184 164.282 29.6184C163.446 29.6184 162.702 29.44 162.05 29.0832C161.397 28.7264 160.887 28.2166 160.52 27.554C160.153 26.8913 159.97 26.1165 159.97 25.2295C159.97 24.3425 160.148 23.5677 160.505 22.905C160.872 22.2424 161.382 21.7326 162.034 21.3758C162.687 21.019 163.436 20.8406 164.282 20.8406C165.108 20.8406 165.842 21.0139 166.485 21.3605C167.127 21.7071 167.626 22.2016 167.983 22.8439C168.35 23.4862 168.534 24.2355 168.534 25.0919ZM165.858 24.4037C165.858 23.9551 165.705 23.5983 165.399 23.3332C165.093 23.0682 164.711 22.9356 164.252 22.9356C163.813 22.9356 163.441 23.0631 163.135 23.3179C162.84 23.5728 162.656 23.9347 162.585 24.4037H165.858Z" fill="white"/>
</svg>
